<?xml version="1.0" standalone="no"?>
<!DOCTYPE svg PUBLIC "-//W3C//DTD SVG 20010904//EN"
 "http://www.w3.org/TR/2001/REC-SVG-20010904/DTD/svg10.dtd">
<svg version="1.0" xmlns="http://www.w3.org/2000/svg"
 width="1280.000000pt" height="640.000000pt" viewBox="0 0 1280.000000 640.000000"
 preserveAspectRatio="xMidYMid meet">
<metadata>
Created by potrace 1.15, written by Peter Selinger 2001-2017
</metadata>
<g transform="translate(0.000000,640.000000) scale(0.100000,-0.100000)"
fill="#000000" stroke="none">
<path d="M6264 4755 c-379 -84 -675 -351 -775 -700 -30 -103 -37 -296 -15
-405 25 -124 71 -232 141 -335 l62 -91 -141 -100 c-77 -54 -146 -100 -153
-102 -8 -2 -57 28 -111 66 -394 280 -651 420 -893 488 -125 35 -327 44 -442
20 -238 -49 -419 -178 -507 -361 -49 -103 -61 -157 -61 -271 0 -182 48 -294
185 -430 77 -76 107 -99 186 -138 146 -71 195 -81 400 -80 159 0 183 3 260 26
47 15 107 36 135 48 l50 21 -47 29 -46 29 -52 -20 c-107 -41 -210 -59 -334
-59 -208 0 -338 51 -471 184 -130 130 -194 289 -182 450 25 339 324 488 759
377 254 -64 579 -227 894 -447 l95 -66 -83 -56 c-109 -74 -262 -173 -315 -203
-24 -13 -42 -28 -40 -32 1 -5 18 -17 38 -29 l36 -20 109 67 c60 37 157 101
217 141 59 41 110 74 113 74 3 0 33 -20 67 -44 220 -156 522 -303 743 -362
206 -55 311 -64 452 -39 297 52 635 199 919 401 34 24 64 44 67 44 3 0 54 -33
113 -74 60 -40 157 -104 217 -141 l109 -67 36 20 c20 12 37 24 38 29 2 4 -16
19 -40 32 -53 30 -206 129 -315 203 l-83 56 95 66 c650 454 1212 599 1491 388
173 -131 213 -384 97 -615 -51 -102 -171 -222 -272 -270 -110 -52 -179 -67
-316 -67 -124 0 -227 18 -334 59 l-52 20 -46 -29 -47 -29 50 -21 c28 -12 88
-33 135 -48 77 -23 101 -26 260 -26 204 -1 251 9 399 80 80 39 109 60 186 138
139 137 185 245 185 432 0 114 -16 181 -64 279 -87 175 -270 303 -503 351
-115 24 -317 15 -442 -20 -242 -68 -499 -208 -893 -488 -54 -38 -103 -68 -111
-66 -7 2 -76 48 -153 102 l-141 100 62 91 c103 152 155 319 155 499 0 192 -48
351 -155 511 -201 303 -616 496 -921 430z m251 -160 c278 -81 471 -235 579
-466 61 -129 71 -182 71 -384 0 -195 -15 -278 -69 -383 -46 -89 -46 -89 -97
-55 -327 222 -622 269 -925 147 -86 -34 -189 -90 -273 -147 -43 -29 -44 -29
-59 -11 -25 33 -70 136 -88 199 -21 80 -31 343 -15 427 63 334 286 567 642
672 106 32 127 32 234 1z m20 -1180 c47 -9 121 -29 164 -45 84 -33 281 -145
281 -160 0 -18 -159 -136 -233 -172 -113 -56 -170 -67 -347 -67 -176 0 -234
11 -346 65 -71 35 -234 156 -234 174 0 5 46 37 102 70 222 131 404 171 613
135z m-737 -306 c110 -100 224 -166 349 -200 66 -19 104 -22 253 -22 149 0
187 3 253 22 126 34 239 100 350 201 l57 52 118 -83 c64 -45 127 -90 139 -98
12 -9 23 -19 23 -22 0 -13 -224 -152 -353 -219 -171 -89 -313 -145 -462 -183
l-120 -30 -100 23 c-144 32 -298 91 -471 179 -142 73 -374 215 -374 230 0 5
270 200 279 201 2 0 28 -23 59 -51z"/>
<path d="M2830 3213 c-81 -6 -227 -33 -312 -57 -462 -135 -734 -523 -653 -934
46 -230 207 -411 425 -477 117 -35 348 -30 472 11 90 29 134 97 90 137 -39 35
-105 11 -125 -44 -9 -28 -101 -44 -242 -43 -116 0 -137 3 -198 27 -155 61
-262 178 -303 332 -18 66 -17 206 1 275 42 159 169 309 332 393 257 132 656
194 979 151 l41 -6 11 84 c7 45 14 93 18 104 5 19 1 22 -38 28 -143 21 -357
30 -498 19z"/>
<path d="M9615 3211 c-173 -17 -187 -21 -181 -45 4 -11 11 -59 18 -104 l11
-84 41 6 c241 32 564 2 797 -74 156 -51 263 -113 354 -205 124 -124 175 -242
175 -406 0 -220 -116 -388 -325 -469 -109 -43 -415 -29 -432 19 -20 56 -92 81
-126 43 -40 -44 3 -107 91 -136 124 -41 355 -46 472 -11 351 106 524 485 395
868 -85 250 -320 455 -622 542 -46 14 -122 31 -170 40 -103 18 -383 27 -498
16z"/>
<path d="M3500 3123 c-5 -21 -13 -68 -16 -105 l-7 -66 44 -12 c90 -23 267 -84
368 -127 242 -103 463 -225 973 -539 688 -424 880 -522 1163 -593 413 -104
809 -40 1260 206 177 96 273 154 655 388 509 313 730 435 971 538 100 42 278
104 367 127 38 10 42 14 42 42 0 41 -19 151 -29 167 -7 10 -28 7 -106 -14
-292 -79 -627 -247 -1141 -570 -642 -405 -807 -502 -1019 -598 -477 -217 -779
-216 -1260 5 -184 84 -415 217 -835 483 -566 357 -825 501 -1087 603 -107 42
-299 102 -325 102 -4 0 -12 -17 -18 -37z"/>
<path d="M41 2103 c-17 -21 -31 -41 -31 -45 0 -5 425 -8 945 -8 l944 0 -18 43
-18 42 -896 3 -895 2 -31 -37z"/>
<path d="M2020 2135 c0 -2 7 -23 16 -45 l16 -40 1392 0 1393 0 31 39 c18 22
32 42 32 45 0 3 -648 6 -1440 6 -792 0 -1440 -2 -1440 -5z"/>
<path d="M7900 2134 c0 -3 14 -24 31 -45 l31 -39 1393 0 1393 0 16 40 c9 22
16 43 16 45 0 3 -648 5 -1440 5 -792 0 -1440 -3 -1440 -6z"/>
<path d="M10921 2098 l-18 -43 940 -3 c517 -1 943 0 945 3 3 3 -8 22 -25 43
l-30 37 -897 3 -897 2 -18 -42z"/>
</g>
</svg>
